<svg xmlns="http://www.w3.org/2000/svg" xmlns:xlink="http://www.w3.org/1999/xlink" width="386" height="386" viewBox="0 0 386 386"><defs><filter id="a" x="16.23" y="25.962" width="353.54" height="355.2" filterUnits="userSpaceOnUse"><feOffset dy="5" input="SourceAlpha"/><feGaussianBlur stdDeviation="3" result="b"/><feFlood flood-opacity="0.161"/><feComposite operator="in" in2="b"/><feComposite in="SourceGraphic"/></filter><clipPath id="d"><rect width="386" height="386"/></clipPath></defs><g id="c" clip-path="url(#d)"><g transform="matrix(1, 0, 0, 1, 0, 0)" filter="url(#a)"><path d="M167.77,0c92.657,0,167.77,75.045,167.77,167.617S260.427,335.234,167.77,335.234a167.373,167.373,0,0,1-80.628-20.6L2.269,337.2a2.223,2.223,0,0,1-1.249-.628A2.336,2.336,0,0,1,.7,335.188l22.113-83.137A166.633,166.633,0,0,1,0,167.617C0,75.045,75.113,0,167.77,0Z" transform="translate(25.23 29.96)" fill="#fff"/></g><path d="M130.643,0c72.152,0,130.643,58.635,130.643,130.966S202.794,261.931,130.643,261.931a129.862,129.862,0,0,1-71.865-21.6L14.755,253.079s-2.8.92-3.734,0,0-3.681,0-3.681l12.759-43.077A130.41,130.41,0,0,1,0,130.966C0,58.635,58.491,0,130.643,0Z" transform="translate(62.861 66.746)" fill="#a846eb"/><path d="M-9868.39,328H-9950.3a28.814,28.814,0,0,1-11.288-2.279,28.921,28.921,0,0,1-9.219-6.215,28.9,28.9,0,0,1-6.214-9.218A28.8,28.8,0,0,1-9979.3,299V278.838h-3.7a6.007,6.007,0,0,1-6-6V237.1a6.007,6.007,0,0,1,6-6h3.7V214.5a28.806,28.806,0,0,1,2.279-11.288,28.9,28.9,0,0,1,6.214-9.218,28.9,28.9,0,0,1,9.219-6.215A28.819,28.819,0,0,1-9950.3,185.5h23.043l7.787-4.728a13.948,13.948,0,0,1-3.726-9.524,14.012,14.012,0,0,1,4.26-10.076A14.6,14.6,0,0,1-9908.653,157a14.605,14.605,0,0,1,10.287,4.174,14.011,14.011,0,0,1,4.261,10.076,14.168,14.168,0,0,1-3.811,9.617l7.471,4.635h22.056a28.819,28.819,0,0,1,11.288,2.279,28.919,28.919,0,0,1,9.22,6.215,28.907,28.907,0,0,1,6.215,9.218,28.806,28.806,0,0,1,2.279,11.288v16.6h4.39a6.006,6.006,0,0,1,6,6v35.738a6.006,6.006,0,0,1-6,6h-4.39V299a28.8,28.8,0,0,1-2.279,11.287,28.909,28.909,0,0,1-6.215,9.218,28.92,28.92,0,0,1-9.22,6.215A28.814,28.814,0,0,1-9868.39,328Zm-61.853-47.739a8.2,8.2,0,0,0-8.2,8.2,8.2,8.2,0,0,0,8.2,8.193h43.179a8.2,8.2,0,0,0,8.2-8.193,8.2,8.2,0,0,0-8.2-8.2Zm55.876-52.011a12.312,12.312,0,0,0-12.121,12.467,12.313,12.313,0,0,0,12.121,12.469,12.313,12.313,0,0,0,12.121-12.469A12.312,12.312,0,0,0-9874.366,228.251Zm-69.266,0a12.312,12.312,0,0,0-12.121,12.467,12.313,12.313,0,0,0,12.121,12.469,12.314,12.314,0,0,0,12.123-12.469A12.313,12.313,0,0,0-9943.632,228.251Z" transform="translate(10102 -49.501)" fill="#fff"/></g></svg>