<svg xmlns="http://www.w3.org/2000/svg" xmlns:xlink="http://www.w3.org/1999/xlink" width="386" height="386" viewBox="0 0 386 386"><defs><clipPath id="b"><rect width="386" height="386"/></clipPath></defs><g id="a" clip-path="url(#b)"><path d="M167.77,0c92.657,0,167.77,75.045,167.77,167.617S260.427,335.234,167.77,335.234a167.373,167.373,0,0,1-80.628-20.6L2.269,337.2a2.223,2.223,0,0,1-1.249-.628A2.336,2.336,0,0,1,.7,335.188l22.113-83.137A166.633,166.633,0,0,1,0,167.617C0,75.045,75.113,0,167.77,0Z" transform="translate(25.23 29.962)" fill="#fff"/><path d="M130.643,0c72.152,0,130.643,58.635,130.643,130.966S202.794,261.931,130.643,261.931a129.862,129.862,0,0,1-71.865-21.6L14.755,253.079s-2.8.92-3.734,0,0-3.681,0-3.681l12.759-43.077A130.41,130.41,0,0,1,0,130.966C0,58.635,58.491,0,130.643,0Z" transform="translate(62.861 66.746)" fill="#25d366"/></g></svg>