<svg xmlns="http://www.w3.org/2000/svg" xmlns:xlink="http://www.w3.org/1999/xlink" width="386" height="386" viewBox="0 0 386 386"><defs><clipPath id="b"><rect width="386" height="386"/></clipPath></defs><g id="a" clip-path="url(#b)"><ellipse cx="168" cy="168.5" rx="168" ry="168.5" transform="translate(25 30)" fill="#1a1a1a"/><ellipse cx="130.5" cy="131" rx="130.5" ry="131" transform="translate(63 67)" fill="#a846eb"/><path d="M-9868.39,328H-9950.3a28.814,28.814,0,0,1-11.288-2.279,28.921,28.921,0,0,1-9.219-6.215,28.9,28.9,0,0,1-6.214-9.218A28.8,28.8,0,0,1-9979.3,299V278.838h-3.7a6.007,6.007,0,0,1-6-6V237.1a6.007,6.007,0,0,1,6-6h3.7V214.5a28.806,28.806,0,0,1,2.279-11.288,28.9,28.9,0,0,1,6.214-9.218,28.9,28.9,0,0,1,9.219-6.215A28.819,28.819,0,0,1-9950.3,185.5h23.043l7.787-4.728a13.948,13.948,0,0,1-3.726-9.524,14.012,14.012,0,0,1,4.26-10.076A14.6,14.6,0,0,1-9908.653,157a14.605,14.605,0,0,1,10.287,4.174,14.011,14.011,0,0,1,4.261,10.076,14.168,14.168,0,0,1-3.811,9.617l7.471,4.635h22.056a28.819,28.819,0,0,1,11.288,2.279,28.919,28.919,0,0,1,9.22,6.215,28.907,28.907,0,0,1,6.215,9.218,28.806,28.806,0,0,1,2.279,11.288v16.6h4.39a6.006,6.006,0,0,1,6,6v35.738a6.006,6.006,0,0,1-6,6h-4.39V299a28.8,28.8,0,0,1-2.279,11.287,28.909,28.909,0,0,1-6.215,9.218,28.92,28.92,0,0,1-9.22,6.215A28.814,28.814,0,0,1-9868.39,328Zm-61.853-47.739a8.2,8.2,0,0,0-8.2,8.2,8.2,8.2,0,0,0,8.2,8.193h43.179a8.2,8.2,0,0,0,8.2-8.193,8.2,8.2,0,0,0-8.2-8.2Zm55.876-52.011a12.312,12.312,0,0,0-12.121,12.467,12.313,12.313,0,0,0,12.121,12.469,12.313,12.313,0,0,0,12.121-12.469A12.312,12.312,0,0,0-9874.366,228.251Zm-69.266,0a12.312,12.312,0,0,0-12.121,12.467,12.313,12.313,0,0,0,12.121,12.469,12.314,12.314,0,0,0,12.123-12.469A12.313,12.313,0,0,0-9943.632,228.251Z" transform="translate(10102 -49.501)" fill="#1a1a1a"/></g></svg>