<svg xmlns="http://www.w3.org/2000/svg" xmlns:xlink="http://www.w3.org/1999/xlink" width="386" height="386" viewBox="0 0 386 386"><defs><clipPath id="b"><rect width="386" height="386"/></clipPath></defs><g id="a" clip-path="url(#b)"><g transform="translate(25.23 29.962)" fill="#1a1a1a" stroke-linecap="round" stroke-linejoin="bevel"><path d="M 3.524206638336182 334.2793884277344 L 25.224853515625 252.6941680908203 L 25.4926700592041 251.6872711181641 L 24.96612548828125 250.7881774902344 C 17.74776268005371 238.4623107910156 12.1691255569458 225.2303924560547 8.38521671295166 211.4600372314453 C 4.480080127716064 197.2484893798828 2.499989032745361 182.4975891113281 2.499989032745361 167.6170806884766 C 2.499989032745361 156.4126281738281 3.629670858383179 145.2158966064453 5.857625484466553 134.3380432128906 C 8.028716087341309 123.7378082275391 11.26830673217773 113.3111267089844 15.4863977432251 103.3475799560547 C 19.62812614440918 93.56430816650391 24.75462532043457 84.12812805175781 30.72344398498535 75.30117034912109 C 36.63599014282227 66.55735778808594 43.42630767822266 58.33499145507812 50.90562438964844 50.86249160766602 C 58.38503265380859 43.38990020751953 66.614990234375 36.60576248168945 75.36680603027344 30.69849014282227 C 84.20203399658203 24.7349910736084 93.64703369140625 19.61308097839355 103.4394454956055 15.47499084472656 C 113.4124450683594 11.26062679290771 123.848991394043 8.023900032043457 134.4592132568359 5.854718208312988 C 145.3474884033203 3.62867259979248 156.5548553466797 2.499990940093994 167.7699890136719 2.499990940093994 C 178.9851226806641 2.499990940093994 190.1924896240234 3.62867259979248 201.0807647705078 5.854718208312988 C 211.6909942626953 8.023900032043457 222.1275329589844 11.26062679290771 232.1005401611328 15.47499084472656 C 241.8929443359375 19.61308097839355 251.3379364013672 24.7349910736084 260.1731567382812 30.69849014282227 C 268.9249877929688 36.60576248168945 277.1549377441406 43.38990020751953 284.6343383789062 50.86249160766602 C 292.1136779785156 58.33499145507812 298.9039916992188 66.55735778808594 304.8165283203125 75.30117034912109 C 310.7853393554688 84.12812805175781 315.911865234375 93.56430816650391 320.0535888671875 103.3475799560547 C 324.2716674804688 113.3111267089844 327.5112609863281 123.7378082275391 329.6823425292969 134.3380432128906 C 331.9103088378906 145.2158966064453 333.0399780273438 156.4126281738281 333.0399780273438 167.6170806884766 C 333.0399780273438 178.821533203125 331.9103088378906 190.0182647705078 329.6823425292969 200.8961334228516 C 327.5112609863281 211.4963531494141 324.2716674804688 221.9230346679688 320.0535888671875 231.8865814208984 C 315.911865234375 241.6698608398438 310.7853393554688 251.1060333251953 304.8165283203125 259.9329833984375 C 298.9039916992188 268.6767578125 292.1136779785156 276.8991394042969 284.6343383789062 284.3716735839844 C 277.1549377441406 291.8442687988281 268.9249877929688 298.6283874511719 260.1731567382812 304.5356140136719 C 251.3379364013672 310.4991149902344 241.8929443359375 315.6210327148438 232.1005401611328 319.7591247558594 C 222.1275329589844 323.9734802246094 211.6909942626953 327.210205078125 201.0807647705078 329.37939453125 C 190.1924896240234 331.6054382324219 178.9851226806641 332.734130859375 167.7699890136719 332.734130859375 C 153.6923980712891 332.734130859375 139.7132568359375 330.9603576660156 126.2208557128906 327.4621276855469 C 113.0978088378906 324.0596618652344 100.3530807495117 319.0067749023438 88.340576171875 312.4437255859375 L 87.46449279785156 311.9650268554688 L 86.49967193603516 312.2215270996094 L 3.524206638336182 334.2793884277344 Z" stroke="none"/><path d="M 167.7699890136719 5 C 156.7226715087891 5 145.6838073730469 6.11163330078125 134.9599914550781 8.304046630859375 C 124.5113067626953 10.44021606445312 114.2336730957031 13.627685546875 104.4125823974609 17.77780151367188 C 94.76876831054688 21.85311889648438 85.46694946289062 26.89739990234375 76.76544189453125 32.77066040039062 C 68.14547729492188 38.58889770507812 60.0394287109375 45.27090454101562 52.67263793945312 52.63104248046875 C 45.30581665039062 59.99111938476562 38.61785888671875 68.08956909179688 32.79440307617188 76.7015380859375 C 26.91604614257812 85.39471435546875 21.86734008789062 94.68766784667969 17.78857421875 104.3222198486328 C 13.6348876953125 114.1336669921875 10.44476318359375 124.4012145996094 8.306793212890625 134.8396301269531 C 6.112579345703125 145.5528106689453 5 156.5807647705078 5 167.6170806884766 C 5 182.2738037109375 6.949981689453125 196.8018493652344 10.79583740234375 210.7976379394531 C 14.52194213867188 224.3575439453125 20.01531982421875 237.3872680664062 27.12344360351562 249.5248107910156 L 27.64083862304688 253.3367614746094 L 7.048370361328125 330.7557067871094 L 85.85739135742188 309.8053894042969 L 89.53926086425781 310.249755859375 C 101.3714904785156 316.71435546875 113.9240875244141 321.6912231445312 126.8482666015625 325.0421752929688 C 140.1358947753906 328.4873046875 153.9039459228516 330.234130859375 167.7699890136719 330.234130859375 C 178.8173065185547 330.234130859375 189.8561706542969 329.1224975585938 200.5799865722656 326.9300842285156 C 211.0286712646484 324.7938842773438 221.3063049316406 321.6064453125 231.1273956298828 317.456298828125 C 240.7712097167969 313.3809814453125 250.0730285644531 308.3367309570312 258.7745361328125 302.4634399414062 C 267.3944702148438 296.6452026367188 275.5005493164062 289.9632263183594 282.8673400878906 282.6030883789062 C 290.2341613769531 275.2430419921875 296.922119140625 267.14453125 302.7455749511719 258.5325927734375 C 308.6239318847656 249.8394012451172 313.6726379394531 240.5464935302734 317.7514038085938 230.9119567871094 C 321.9050903320312 221.1004486083984 325.09521484375 210.8329010009766 327.2331848144531 200.3944854736328 C 329.4273986816406 189.6813049316406 330.5399780273438 178.6533966064453 330.5399780273438 167.6170806884766 C 330.5399780273438 156.5807647705078 329.4273986816406 145.5528106689453 327.2331848144531 134.8396301269531 C 325.09521484375 124.4012145996094 321.9050903320312 114.1336669921875 317.7514038085938 104.3222198486328 C 313.6726379394531 94.68766784667969 308.6239318847656 85.39471435546875 302.7455749511719 76.7015380859375 C 296.922119140625 68.08956909179688 290.2341613769531 59.99111938476562 282.8673400878906 52.63104248046875 C 275.5005493164062 45.27090454101562 267.3944702148438 38.58889770507812 258.7745361328125 32.77066040039062 C 250.0730285644531 26.89739990234375 240.7712097167969 21.85311889648438 231.1273956298828 17.77780151367188 C 221.3063049316406 13.627685546875 211.0286712646484 10.44021606445312 200.5799865722656 8.304046630859375 C 189.8561706542969 6.11163330078125 178.8173065185547 5 167.7699890136719 5 M 167.7699890136719 0 C 260.4268188476562 0 335.5399780273438 75.04470825195312 335.5399780273438 167.6170806884766 C 335.5399780273438 260.1893920898438 260.4268188476562 335.234130859375 167.7699890136719 335.234130859375 C 138.6611633300781 335.234130859375 111.2839050292969 327.82763671875 87.14193725585938 314.6375732421875 L 2.26861572265625 337.1999816894531 C 2.26861572265625 337.1999816894531 1.412933349609375 337.07470703125 1.019683837890625 336.5718688964844 C 0.62640380859375 336.06884765625 0.695526123046875 335.188232421875 0.695526123046875 335.188232421875 L 22.808837890625 252.0515441894531 C 8.3292236328125 227.3266296386719 0 198.4436798095703 0 167.6170806884766 C 0 75.04470825195312 75.1131591796875 0 167.7699890136719 0 Z" stroke="none" fill="#1a1a1a"/></g><path d="M130.643,0c72.152,0,130.643,58.635,130.643,130.966S202.794,261.931,130.643,261.931a129.862,129.862,0,0,1-71.865-21.6L14.755,253.079s-2.8.92-3.734,0,0-3.681,0-3.681l12.759-43.077A130.41,130.41,0,0,1,0,130.966C0,58.635,58.491,0,130.643,0Z" transform="translate(62.861 66.746)" fill="#25d366"/><path d="M-9868.39,328H-9950.3a28.814,28.814,0,0,1-11.288-2.279,28.921,28.921,0,0,1-9.219-6.215,28.9,28.9,0,0,1-6.214-9.218A28.8,28.8,0,0,1-9979.3,299V278.838h-3.7a6.007,6.007,0,0,1-6-6V237.1a6.007,6.007,0,0,1,6-6h3.7V214.5a28.806,28.806,0,0,1,2.279-11.288,28.9,28.9,0,0,1,6.214-9.218,28.9,28.9,0,0,1,9.219-6.215A28.819,28.819,0,0,1-9950.3,185.5h23.043l7.787-4.728a13.948,13.948,0,0,1-3.726-9.524,14.012,14.012,0,0,1,4.26-10.076A14.6,14.6,0,0,1-9908.653,157a14.605,14.605,0,0,1,10.287,4.174,14.011,14.011,0,0,1,4.261,10.076,14.168,14.168,0,0,1-3.811,9.617l7.471,4.635h22.056a28.819,28.819,0,0,1,11.288,2.279,28.919,28.919,0,0,1,9.22,6.215,28.907,28.907,0,0,1,6.215,9.218,28.806,28.806,0,0,1,2.279,11.288v16.6h4.39a6.006,6.006,0,0,1,6,6v35.738a6.006,6.006,0,0,1-6,6h-4.39V299a28.8,28.8,0,0,1-2.279,11.287,28.909,28.909,0,0,1-6.215,9.218,28.92,28.92,0,0,1-9.22,6.215A28.814,28.814,0,0,1-9868.39,328Zm-61.853-47.739a8.2,8.2,0,0,0-8.2,8.2,8.2,8.2,0,0,0,8.2,8.193h43.179a8.2,8.2,0,0,0,8.2-8.193,8.2,8.2,0,0,0-8.2-8.2Zm55.876-52.011a12.312,12.312,0,0,0-12.121,12.467,12.313,12.313,0,0,0,12.121,12.469,12.313,12.313,0,0,0,12.121-12.469A12.312,12.312,0,0,0-9874.366,228.251Zm-69.266,0a12.312,12.312,0,0,0-12.121,12.467,12.313,12.313,0,0,0,12.121,12.469,12.314,12.314,0,0,0,12.123-12.469A12.313,12.313,0,0,0-9943.632,228.251Z" transform="translate(10102 -49.501)" fill="#1a1a1a"/></g></svg>