<svg xmlns="http://www.w3.org/2000/svg" xmlns:xlink="http://www.w3.org/1999/xlink" width="470" height="115" viewBox="0 0 470 115"><defs><clipPath id="b"><rect width="470" height="115"/></clipPath></defs><g id="a" clip-path="url(#b)"><g transform="translate(-36.011 -20)"><text transform="translate(379 133)" fill="#1a1a1a" font-size="130" font-family="SegoeUI-Bold, Segoe UI" font-weight="700"><tspan x="0" y="0">JS</tspan></text><path d="M-931.252-1520.6a20.561,20.561,0,0,1-9.322-2.022,17.729,17.729,0,0,1-6.738-6.065h-.225V-1522h-17.745v-85.127h17.744v36.275h.225a22.039,22.039,0,0,1,7.959-7.538,22.43,22.43,0,0,1,10.739-2.513,24.056,24.056,0,0,1,9.841,1.909,19.122,19.122,0,0,1,7.285,5.727,26.234,26.234,0,0,1,4.506,9.041,43.091,43.091,0,0,1,1.5,11.848,49.362,49.362,0,0,1-.7,8.488A15.219,15.219,0,0,0-908-1544a15.017,15.017,0,0,0-15,15,14.857,14.857,0,0,0,1.515,6.576A25.279,25.279,0,0,1-931.252-1520.6Zm-4.212-46.719a11.326,11.326,0,0,0-8.843,3.987,15.207,15.207,0,0,0-3.51,10.388v5.9a13.523,13.523,0,0,0,3.2,9.21,10.46,10.46,0,0,0,8.2,3.65,10.924,10.924,0,0,0,9.4-4.689c2.217-3.111,3.341-7.578,3.341-13.28,0-4.733-1.03-8.483-3.06-11.146A10.37,10.37,0,0,0-935.464-1567.315Zm-66.147,46.719a36.829,36.829,0,0,1-12.367-1.93,24.605,24.605,0,0,1-9.252-5.791,24.766,24.766,0,0,1-5.769-9.244,36.586,36.586,0,0,1-1.923-12.29,37.3,37.3,0,0,1,2.078-12.831,27.083,27.083,0,0,1,6.233-9.854,28.021,28.021,0,0,1,9.265-6.276,29.349,29.349,0,0,1,11.174-2.092,31.124,31.124,0,0,1,11.153,1.867,21.789,21.789,0,0,1,8.3,5.6,24.5,24.5,0,0,1,5.159,8.8,35.757,35.757,0,0,1,1.72,11.47v7.468h-37.51c.6,8.308,5.905,12.522,15.779,12.522a30.95,30.95,0,0,0,16.678-4.492v12.8a33.943,33.943,0,0,1-9.167,3.2A57.714,57.714,0,0,1-1001.611-1520.6Zm-.674-48.347a9.583,9.583,0,0,0-7.384,3.537,16.135,16.135,0,0,0-3.791,8.816h21.17c0-4.1-.84-7.216-2.5-9.265S-998.969-1568.943-1002.285-1568.943ZM-1054.169-1522h-20.1l-13.365-51.66a43.336,43.336,0,0,1-1.292-9.041h-.224a55.293,55.293,0,0,1-1.46,9.041l-13.7,51.66h-20.945l-21.17-80.522h19.823l11.343,53.625a64.353,64.353,0,0,1,1.067,9.21h.338a44.758,44.758,0,0,1,1.628-9.434l14.6-53.4h19.428l13.2,54.075a66.478,66.478,0,0,1,1.292,8.647h.225a58.232,58.232,0,0,1,1.179-8.985l11.118-53.737h18.306L-1054.169-1522Zm-115.562,0h-20.1l-13.364-51.66a43.227,43.227,0,0,1-1.292-9.041h-.225a55.173,55.173,0,0,1-1.46,9.041l-13.7,51.66h-20.945l-21.169-80.522h19.822l11.343,53.625a64.245,64.245,0,0,1,1.067,9.21h.337a44.755,44.755,0,0,1,1.628-9.434l14.6-53.4h19.428l13.2,54.075a66.478,66.478,0,0,1,1.292,8.647h.225a58.217,58.217,0,0,1,1.179-8.985l11.119-53.737h18.305L-1169.731-1522Z" transform="translate(1298 1627)" fill="#2196f3"/><circle cx="10" cy="10" r="10" transform="translate(380 88)" fill="#2196f3"/></g></g></svg>