<svg xmlns="http://www.w3.org/2000/svg" xmlns:xlink="http://www.w3.org/1999/xlink" width="253" height="230" viewBox="0 0 253 230"><defs><clipPath id="b"><rect width="253" height="230"/></clipPath></defs><g id="a" clip-path="url(#b)"><path d="M-3971.736-1032h-95.728v-13.711a72.223,72.223,0,0,1,1.175-13.25,57.651,57.651,0,0,1,3.523-11.823,83.626,83.626,0,0,1,11.807-19.932,102.893,102.893,0,0,1,15.552-15.615c5.61-4.513,11.013-8.635,16.059-12.251,5.31-3.793,10.03-7.467,14.029-10.918a80.408,80.408,0,0,0,10.156-10.346,39.534,39.534,0,0,0,6.157-10.41,31.119,31.119,0,0,0,2.031-11.236c0-7.75-2.221-13.687-6.6-17.646s-11.171-5.967-20.185-5.967c-15.584,0-30.705,6.279-44.942,18.662v-35.293a94.375,94.375,0,0,1,25.264-11.521,102.714,102.714,0,0,1,28.311-3.84,79.493,79.493,0,0,1,24.82,3.618,58.642,58.642,0,0,1,10.14,4.4,48.1,48.1,0,0,1,8.458,5.951,44.007,44.007,0,0,1,6.713,7.442,45.535,45.535,0,0,1,4.9,8.871,50.451,50.451,0,0,1,3,10.141,61.419,61.419,0,0,1,1,11.251,60.588,60.588,0,0,1-3.873,22.343,68.968,68.968,0,0,1-10.283,17.774,93.716,93.716,0,0,1-14.79,14.663c-5.548,4.414-11.4,8.749-17.392,12.886-4.056,2.873-8.007,5.756-11.743,8.57a111.635,111.635,0,0,0-9.966,8.379,45.715,45.715,0,0,0-6.856,8.061,13.978,13.978,0,0,0-2.539,7.49h74.894A29.824,29.824,0,0,0-3972-1036a30.411,30.411,0,0,0,.264,4Z" transform="translate(4174.989 1223)" fill="#fff" stroke="rgba(0,0,0,0)" stroke-miterlimit="10" stroke-width="1"/><text transform="translate(-1.123 161.045)" fill="#de3636" font-size="230" font-family="SegoeUI-Bold, Segoe UI" font-weight="700"><tspan x="0" y="0">V</tspan></text><circle cx="20" cy="20" r="20" transform="translate(212.989 167)" fill="#de3636"/></g></svg>