<svg xmlns="http://www.w3.org/2000/svg" xmlns:xlink="http://www.w3.org/1999/xlink" width="940" height="230" viewBox="0 0 940 230"><defs><clipPath id="b"><rect width="940" height="230"/></clipPath></defs><g id="a" clip-path="url(#b)"><text transform="translate(686.989 223)" fill="#fff" font-size="260" font-family="SegoeUI-Bold, Segoe UI" font-weight="700"><tspan x="0" y="0">JS</tspan></text><path d="M-1139.5-1395.193a47.191,47.191,0,0,1-9.967-1.01,36.5,36.5,0,0,1-8.676-3.032,33.71,33.71,0,0,1-7.384-5.054,38.248,38.248,0,0,1-6.092-7.075h-.449V-1398h-35.489v-170.254h35.489v72.549h.449a49.083,49.083,0,0,1,7.265-8.8,40.492,40.492,0,0,1,8.654-6.282,40.872,40.872,0,0,1,10.044-3.77,50.3,50.3,0,0,1,11.434-1.256,48.112,48.112,0,0,1,19.682,3.818,37.612,37.612,0,0,1,7.925,4.773,39.778,39.778,0,0,1,6.647,6.682,52.471,52.471,0,0,1,9.012,18.081,86.175,86.175,0,0,1,3,23.7,103.959,103.959,0,0,1-.7,12.234,30.27,30.27,0,0,0-5.36-.477,30.034,30.034,0,0,0-30,30,29.789,29.789,0,0,0,5.6,17.463,45.522,45.522,0,0,1-9.96,3.258A55.388,55.388,0,0,1-1139.5-1395.193Zm-8.423-93.437a22.656,22.656,0,0,0-17.688,7.973c-4.657,5.291-7.019,12.281-7.019,20.776v11.792c0,7.379,2.154,13.576,6.4,18.419a20.916,20.916,0,0,0,16.4,7.3c8.048,0,14.377-3.155,18.811-9.378s6.682-15.157,6.682-26.56c0-9.463-2.059-16.963-6.12-22.292S-1140.4-1488.63-1147.927-1488.63Zm-132.295,93.437a85.682,85.682,0,0,1-13.147-.965,63.834,63.834,0,0,1-11.589-2.9,51.669,51.669,0,0,1-10.03-4.826,47.7,47.7,0,0,1-8.472-6.755,48.177,48.177,0,0,1-6.731-8.483,51.889,51.889,0,0,1-4.808-10.006,73.174,73.174,0,0,1-3.846-24.581,85.327,85.327,0,0,1,1.039-13.575,65.8,65.8,0,0,1,3.117-12.087,55.681,55.681,0,0,1,5.194-10.6,53.658,53.658,0,0,1,7.272-9.111,59.4,59.4,0,0,1,8.788-7.321,53.69,53.69,0,0,1,9.742-5.229,55.019,55.019,0,0,1,10.7-3.138,63.522,63.522,0,0,1,11.652-1.046,62.243,62.243,0,0,1,22.306,3.734,44.909,44.909,0,0,1,9.016,4.668,43.129,43.129,0,0,1,7.591,6.535,47.444,47.444,0,0,1,6.019,8.135,51.452,51.452,0,0,1,4.3,9.469,71.5,71.5,0,0,1,3.439,22.938v14.936h-75.02c1.192,16.618,11.809,25.044,31.558,25.044,12.593,0,23.815-3.023,33.354-8.985v25.606a67.863,67.863,0,0,1-18.333,6.4A115.433,115.433,0,0,1-1280.221-1395.193Zm-1.348-96.694c-5.663,0-10.632,2.38-14.768,7.075a32.261,32.261,0,0,0-7.581,17.632h42.339c0-8.2-1.681-14.431-5-18.53S-1274.937-1491.887-1281.569-1491.887ZM-1385.339-1398h-40.205l-26.728-103.321a86.526,86.526,0,0,1-2.583-18.081h-.449a110.337,110.337,0,0,1-2.92,18.081l-27.4,103.321h-41.89l-42.339-161.045h39.644l22.685,107.251a128.833,128.833,0,0,1,2.134,18.418h.673a89.562,89.562,0,0,1,3.257-18.867l29.2-106.8h38.857l26.392,108.149a133.16,133.16,0,0,1,2.583,17.295h.449a116.444,116.444,0,0,1,2.358-17.969l22.236-107.475h36.611L-1385.339-1398Zm-231.124,0h-40.2l-26.728-103.321a86.473,86.473,0,0,1-2.583-18.081h-.45a110.319,110.319,0,0,1-2.92,18.081L-1716.75-1398h-41.89l-42.339-161.045h39.643l22.685,107.251a128.538,128.538,0,0,1,2.134,18.418h.674a89.568,89.568,0,0,1,3.257-18.867l29.2-106.8h38.858l26.392,108.149a133.032,133.032,0,0,1,2.583,17.295h.449a116.47,116.47,0,0,1,2.359-17.969l22.236-107.475h36.611L-1616.462-1398Z" transform="translate(1801 1568)" fill="#25d366"/><circle cx="20" cy="20" r="20" transform="translate(686.989 131)" fill="#25d366"/></g></svg>