<svg xmlns="http://www.w3.org/2000/svg" xmlns:xlink="http://www.w3.org/1999/xlink" width="386" height="386" viewBox="0 0 386 386"><defs><clipPath id="b"><rect width="386" height="386"/></clipPath></defs><g id="a" clip-path="url(#b)"><path d="M-9814,397h-120a40.757,40.757,0,0,1-15.961-3.222,40.866,40.866,0,0,1-13.033-8.786,40.868,40.868,0,0,1-8.787-13.032A40.744,40.744,0,0,1-9975,356V328h-8a6.007,6.007,0,0,1-6-6V267a6.008,6.008,0,0,1,6-6h8V238a40.75,40.75,0,0,1,3.222-15.96,40.868,40.868,0,0,1,8.787-13.032,40.843,40.843,0,0,1,13.033-8.787A40.757,40.757,0,0,1-9934,197h34.132l11.242-6.633A19.307,19.307,0,0,1-9894,177a19.4,19.4,0,0,1,6.149-14.142A21.406,21.406,0,0,1-9873,157a21.4,21.4,0,0,1,14.848,5.858A19.405,19.405,0,0,1-9852,177a19.567,19.567,0,0,1-5.5,13.495l10.784,6.505H-9814a40.742,40.742,0,0,1,15.958,3.222,40.858,40.858,0,0,1,13.032,8.787,40.874,40.874,0,0,1,8.786,13.032A40.751,40.751,0,0,1-9773,238v23h9a6.01,6.01,0,0,1,6,6v55a6.008,6.008,0,0,1-6,6h-9v28a40.745,40.745,0,0,1-3.222,15.958,40.879,40.879,0,0,1-8.786,13.032,40.859,40.859,0,0,1-13.032,8.786A40.742,40.742,0,0,1-9814,397Zm-90.5-67a11.514,11.514,0,0,0-11.5,11.5,11.515,11.515,0,0,0,11.5,11.5h63a11.515,11.515,0,0,0,11.5-11.5,11.514,11.514,0,0,0-11.5-11.5Zm81-73a17.518,17.518,0,0,0-17.5,17.5,17.519,17.519,0,0,0,17.5,17.5,17.52,17.52,0,0,0,17.5-17.5A17.519,17.519,0,0,0-9823.5,257Zm-100,0a17.519,17.519,0,0,0-17.5,17.5,17.52,17.52,0,0,0,17.5,17.5,17.519,17.519,0,0,0,17.5-17.5A17.518,17.518,0,0,0-9923.5,257Z" transform="translate(10066.498 -84)" fill="#fff"/></g></svg>