<svg xmlns="http://www.w3.org/2000/svg" xmlns:xlink="http://www.w3.org/1999/xlink" width="500" height="500" viewBox="0 0 500 500"><defs><clipPath id="b"><rect width="500" height="500"/></clipPath></defs><g id="a" clip-path="url(#b)"><path d="M242,0C375.653,0,484,108.347,484,242S375.653,484,242,484,0,375.653,0,242,108.347,0,242,0Z" transform="translate(8 8)" fill="#fff"/><path d="M363.838,243.281c.932-5.48.932-11.881.932-18.281s-.932-11.881-.932-18.281L403.1,176.556c3.744-2.74,4.675-7.31,1.872-11.881l-37.4-63.074c-1.871-3.66-7.477-5.48-11.221-3.66l-46.746,18.282a136.072,136.072,0,0,0-31.781-18.282L271.278,49.5a10.019,10.019,0,0,0-9.35-7.311H187.135a10.019,10.019,0,0,0-9.349,7.311l-7.478,48.443c-11.221,4.57-21.5,10.971-31.791,18.282L91.772,97.942c-4.675-1.82-9.35,0-11.221,3.66l-37.4,63.075a11.04,11.04,0,0,0,1.871,11.881l40.2,30.161c0,6.4-.932,11.881-.932,18.281s.932,11.881.932,18.281L45.969,273.444c-3.744,2.74-4.674,7.31-1.872,11.881l37.4,63.074c1.872,3.66,7.478,5.48,11.221,3.66l46.746-18.282a136.055,136.055,0,0,0,31.781,18.282l7.478,48.443c.94,4.57,4.674,7.311,9.349,7.311h74.793a10.019,10.019,0,0,0,9.35-7.311l7.487-48.443c11.212-4.57,21.5-10.971,31.781-18.282l46.746,18.282c4.674,1.82,9.349,0,11.221-3.66l37.4-63.075a11.023,11.023,0,0,0-1.872-11.881Zm-139.306,45.7c-36.465,0-65.443-28.332-65.443-63.984s28.978-63.984,65.443-63.984S289.977,189.347,289.977,225,261,288.984,224.532,288.984Z" transform="translate(25 25)" fill="#25d366"/><circle cx="100" cy="100" r="100" transform="translate(150 150)" fill="#25d366"/><path d="M-9814,397h-120a40.757,40.757,0,0,1-15.961-3.222,40.866,40.866,0,0,1-13.033-8.786,40.868,40.868,0,0,1-8.787-13.032A40.744,40.744,0,0,1-9975,356V328h-8a6.007,6.007,0,0,1-6-6V267a6.008,6.008,0,0,1,6-6h8V238a40.75,40.75,0,0,1,3.222-15.96,40.868,40.868,0,0,1,8.787-13.032,40.843,40.843,0,0,1,13.033-8.787A40.757,40.757,0,0,1-9934,197h34.132l11.242-6.633A19.307,19.307,0,0,1-9894,177a19.4,19.4,0,0,1,6.149-14.142A21.406,21.406,0,0,1-9873,157a21.4,21.4,0,0,1,14.848,5.858A19.405,19.405,0,0,1-9852,177a19.567,19.567,0,0,1-5.5,13.495l10.784,6.505H-9814a40.742,40.742,0,0,1,15.958,3.222,40.858,40.858,0,0,1,13.032,8.787,40.874,40.874,0,0,1,8.786,13.032A40.751,40.751,0,0,1-9773,238v23h9a6.01,6.01,0,0,1,6,6v55a6.008,6.008,0,0,1-6,6h-9v28a40.745,40.745,0,0,1-3.222,15.958,40.879,40.879,0,0,1-8.786,13.032,40.859,40.859,0,0,1-13.032,8.786A40.742,40.742,0,0,1-9814,397Zm-90.5-67a11.514,11.514,0,0,0-11.5,11.5,11.515,11.515,0,0,0,11.5,11.5h63a11.515,11.515,0,0,0,11.5-11.5,11.514,11.514,0,0,0-11.5-11.5Zm81-73a17.518,17.518,0,0,0-17.5,17.5,17.519,17.519,0,0,0,17.5,17.5,17.52,17.52,0,0,0,17.5-17.5A17.519,17.519,0,0,0-9823.5,257Zm-100,0a17.519,17.519,0,0,0-17.5,17.5,17.52,17.52,0,0,0,17.5,17.5,17.519,17.519,0,0,0,17.5-17.5A17.518,17.518,0,0,0-9923.5,257Z" transform="translate(10123.499 -46.999)" fill="#fff"/></g></svg>